<?xml version="1.0" standalone="no"?>
<!DOCTYPE svg PUBLIC "-//W3C//DTD SVG 20010904//EN"
 "http://www.w3.org/TR/2001/REC-SVG-20010904/DTD/svg10.dtd">
<svg version="1.0" xmlns="http://www.w3.org/2000/svg"
 width="600.000000pt" height="600.000000pt" viewBox="0 0 600.000000 600.000000"
 preserveAspectRatio="xMidYMid meet">
<metadata>
Created by potrace 1.11, written by Peter Selinger 2001-2013
</metadata>
<g transform="translate(0.000000,600.000000) scale(0.100000,-0.100000)"
fill="#000000" stroke="none">
<path d="M0 3000 l0 -3000 3000 0 3000 0 0 3000 0 3000 -3000 0 -3000 0 0
-3000z m3520 1700 c141 -42 165 -57 156 -100 -4 -22 -895 -3098 -948 -3273
-30 -99 -34 -100 -214 -47 -149 44 -174 57 -174 90 0 37 969 3353 982 3361 23
15 61 9 198 -31z m-1370 -863 c120 -126 133 -143 126 -171 -3 -14 -150 -151
-371 -346 -201 -178 -365 -326 -364 -329 0 -3 151 -139 335 -301 427 -377 404
-356 404 -380 0 -23 -190 -236 -225 -252 -13 -6 -29 -7 -38 -2 -8 5 -232 211
-496 459 -407 380 -481 454 -481 477 0 23 75 98 486 483 363 340 492 455 510
455 17 0 49 -26 114 -93z m2335 -356 c264 -248 484 -461 489 -475 8 -21 5 -30
-15 -52 -38 -42 -940 -888 -955 -897 -27 -15 -53 4 -159 115 -79 83 -105 117
-105 137 0 22 61 80 371 355 203 181 367 332 362 336 -702 623 -733 651 -733
675 0 37 204 255 239 255 21 0 130 -98 506 -449z"/>
</g>
</svg>
